<svg width="6" height="11" viewBox="0 0 6 11" fill="none" xmlns="http://www.w3.org/2000/svg">
<path fill-rule="evenodd" clip-rule="evenodd" d="M0.293 10.207C0.105529 10.0195 0.000213623 9.76516 0.000213623 9.5C0.000213623 9.23483 0.105529 8.98053 0.293 8.793L3.586 5.5L0.293 2.207C0.110842 2.0184 0.0100473 1.76579 0.0123258 1.5036C0.0146042 1.2414 0.119773 0.990589 0.305182 0.805181C0.49059 0.619773 0.741402 0.514603 1.0036 0.512325C1.2658 0.510047 1.5184 0.610841 1.707 0.792999L5.707 4.793C5.89447 4.98053 5.99979 5.23483 5.99979 5.5C5.99979 5.76516 5.89447 6.01947 5.707 6.207L1.707 10.207C1.51947 10.3945 1.26516 10.4998 1 10.4998C0.734836 10.4998 0.480528 10.3945 0.293 10.207Z" fill="#6B7280"/>
</svg>
