<svg width="6" height="11" viewBox="0 0 6 11" fill="none" xmlns="http://www.w3.org/2000/svg">
<path fill-rule="evenodd" clip-rule="evenodd" d="M5.707 0.793C5.89447 0.980528 5.99979 1.23484 5.99979 1.5C5.99979 1.76516 5.89447 2.01947 5.707 2.207L2.414 5.5L5.707 8.793C5.88916 8.9816 5.98995 9.2342 5.98767 9.4964C5.9854 9.7586 5.88023 10.0094 5.69482 10.1948C5.50941 10.3802 5.2586 10.4854 4.9964 10.4877C4.7342 10.49 4.4816 10.3892 4.293 10.207L0.293 6.207C0.105529 6.01947 0.000213623 5.76516 0.000213623 5.5C0.000213623 5.23484 0.105529 4.98053 0.293 4.793L4.293 0.793C4.48053 0.605529 4.73484 0.500214 5 0.500214C5.26516 0.500214 5.51947 0.605529 5.707 0.793Z" fill="#6B7280"/>
</svg>
